<?xml version="1.0" standalone="no"?>
<!DOCTYPE svg PUBLIC "-//W3C//DTD SVG 20010904//EN"
 "http://www.w3.org/TR/2001/REC-SVG-20010904/DTD/svg10.dtd">
<svg version="1.0" xmlns="http://www.w3.org/2000/svg"
 width="900.000000pt" height="774.000000pt" viewBox="0 0 900.000000 774.000000"
 preserveAspectRatio="xMidYMid meet">
<metadata>
Created by potrace 1.10, written by Peter Selinger 2001-2011
</metadata>
<g transform="translate(0.000000,774.000000) scale(0.100000,-0.100000)"
fill="#000000" stroke="none">
<path d="M4240 6689 c-175 -14 -385 -42 -453 -59 -84 -22 -153 -43 -222 -67
-38 -13 -83 -28 -100 -32 -104 -28 -176 -81 -220 -163 -19 -36 -19 -38 0 -57
10 -12 26 -21 36 -21 16 0 28 12 86 88 10 12 32 26 48 31 38 12 114 39 140 50
96 39 256 79 410 101 39 5 95 15 125 22 37 8 172 12 420 12 301 0 379 -3 445
-16 44 -9 125 -24 180 -34 247 -42 451 -134 532 -240 33 -44 32 -75 -2 -120
-83 -109 -302 -186 -655 -232 -194 -25 -795 -24 -995 1 -189 24 -347 57 -420
87 -16 7 -46 19 -65 27 -19 8 -61 28 -93 44 -71 36 -82 36 -116 1 -20 -20 -30
-42 -35 -81 -15 -115 22 -197 129 -284 142 -114 331 -175 691 -222 171 -22
708 -23 815 -1 41 9 85 16 98 16 24 0 131 23 216 46 138 38 206 60 290 99 94
43 128 54 140 47 14 -7 59 -83 94 -157 69 -147 77 -226 62 -625 -6 -179 -17
-395 -23 -480 -6 -85 -12 -315 -13 -510 -2 -298 -5 -364 -19 -405 -27 -81 -45
-108 -98 -145 -27 -19 -55 -40 -61 -45 -7 -6 -57 -45 -112 -86 -216 -163 -364
-231 -660 -306 -105 -27 -557 -26 -665 1 -243 60 -433 144 -600 266 -52 38
-129 93 -170 121 -81 56 -98 74 -118 129 -37 97 -42 145 -47 404 -3 143 -9
320 -15 391 -13 159 -27 477 -36 770 -5 174 -3 241 10 320 22 144 39 195 69
220 15 11 27 30 27 42 0 26 -34 53 -60 46 -37 -10 -82 -58 -91 -98 -5 -22 -18
-83 -31 -135 -19 -83 -22 -123 -22 -315 0 -121 5 -303 12 -405 31 -487 36
-585 42 -865 7 -313 8 -321 58 -436 25 -58 55 -90 128 -138 33 -20 88 -61 124
-89 84 -67 186 -131 280 -177 41 -20 83 -41 92 -46 119 -63 496 -139 688 -139
85 1 337 32 421 53 135 34 252 80 402 159 59 31 319 217 426 304 43 36 77 90
84 134 2 19 13 55 22 80 20 51 22 124 10 296 -5 77 -4 207 4 355 12 244 28
621 38 918 7 230 -17 371 -87 501 -17 30 -42 79 -57 109 -28 55 -71 91 -110
91 -21 0 -112 -37 -186 -75 -16 -8 -33 -15 -39 -15 -5 0 -24 -6 -41 -14 -120
-52 -311 -97 -513 -122 -250 -29 -761 -9 -1004 40 -266 54 -469 170 -500 285
-23 85 -1 97 92 53 35 -16 90 -36 123 -46 33 -9 80 -23 105 -31 25 -8 57 -15
72 -15 15 0 39 -5 55 -11 15 -6 62 -15 103 -19 41 -5 113 -14 159 -20 55 -8
217 -10 475 -7 381 4 477 11 626 43 36 8 72 14 81 14 32 0 214 59 279 90 171
83 259 196 231 297 -11 38 -49 94 -90 132 -32 29 -128 92 -161 107 -8 3 -28
12 -45 19 -72 32 -176 66 -230 76 -22 4 -60 12 -85 17 -236 51 -649 73 -930
51z"/>
<path d="M4440 5353 c-30 -2 -59 -8 -64 -14 -6 -5 -27 -9 -48 -9 -44 0 -66
-27 -48 -59 12 -23 88 -38 116 -23 11 6 32 8 47 5 15 -3 40 0 56 7 24 9 45 9
113 -5 45 -9 106 -25 133 -36 28 -11 59 -24 70 -28 107 -43 244 -121 302 -174
92 -83 180 -233 244 -417 32 -90 34 -102 34 -235 0 -155 -6 -178 -82 -367 -26
-65 -100 -187 -140 -233 -79 -87 -239 -188 -383 -240 -131 -47 -192 -57 -310
-53 -63 3 -126 10 -140 15 -14 6 -52 19 -85 28 -33 10 -71 24 -85 30 -14 7
-41 19 -60 28 -105 46 -131 61 -185 105 -104 84 -190 212 -258 387 -46 119
-71 261 -56 325 5 19 9 61 9 92 0 32 6 72 14 90 25 60 34 136 19 158 -32 46
-75 12 -88 -68 -4 -24 -13 -56 -21 -70 -8 -15 -14 -56 -14 -91 0 -35 -5 -81
-12 -102 -33 -112 72 -442 203 -639 94 -142 273 -262 511 -341 207 -69 388
-65 593 13 28 10 59 23 70 28 11 5 31 14 45 20 14 5 48 23 75 40 28 16 57 33
65 37 35 16 131 96 161 135 19 24 36 45 39 48 11 9 83 132 111 190 132 274
143 510 34 780 -115 284 -230 412 -471 526 -200 94 -354 129 -514 117z"/>
<path d="M4503 4990 c-28 -32 -33 -47 -33 -89 0 -45 4 -55 38 -91 32 -32 46
-40 75 -40 49 0 77 15 109 57 24 30 27 44 24 85 -3 40 -10 56 -37 84 -30 31
-38 34 -88 34 -53 0 -58 -3 -88 -40z"/>
<path d="M5033 4707 c-49 -26 -63 -50 -63 -103 0 -43 5 -57 29 -83 26 -27 35
-31 84 -31 52 0 58 2 86 37 43 52 43 101 -2 149 -26 29 -41 36 -74 38 -24 1
-50 -2 -60 -7z"/>
<path d="M4582 4364 c-28 -32 -32 -43 -32 -94 0 -55 2 -60 40 -94 32 -29 48
-36 80 -36 32 0 48 7 80 36 37 34 40 40 40 91 0 46 -5 61 -31 94 -29 37 -33
39 -88 39 -53 0 -60 -3 -89 -36z"/>
<path d="M3857 4351 c-50 -24 -87 -57 -87 -79 0 -10 -7 -28 -16 -40 -17 -24
-15 -41 9 -105 18 -50 33 -64 92 -86 38 -15 55 -16 84 -8 49 14 97 51 104 79
3 13 11 37 18 55 13 31 8 53 -30 133 -7 15 -107 69 -126 69 -5 -1 -27 -9 -48
-18z"/>
<path d="M5071 4065 c-44 -51 -42 -93 6 -140 51 -49 99 -49 148 1 48 49 49 98
3 143 -26 26 -40 31 -79 31 -41 0 -51 -4 -78 -35z"/>
<path d="M4370 3910 c-26 -25 -30 -36 -30 -82 0 -45 5 -59 29 -86 25 -27 37
-32 74 -32 37 0 48 5 75 35 27 29 32 43 32 83 0 41 -5 53 -33 80 -45 44 -103
45 -147 2z"/>
<path d="M6295 1919 c-87 -11 -120 -24 -168 -68 -69 -62 -87 -159 -46 -246 29
-61 81 -101 228 -177 144 -73 165 -95 164 -168 -1 -39 -6 -55 -24 -73 -34 -32
-73 -47 -123 -47 -58 0 -100 15 -168 61 -85 57 -108 51 -108 -27 0 -53 41 -90
125 -114 184 -52 365 0 418 120 24 55 26 141 3 192 -17 39 -78 104 -111 119
-11 5 -27 13 -35 19 -8 5 -59 30 -112 56 -115 56 -139 77 -145 137 -5 41 -2
48 30 83 35 39 36 39 111 39 52 -1 80 -5 93 -16 10 -8 39 -26 65 -40 53 -27
80 -20 86 20 9 60 -45 113 -128 125 -25 4 -54 9 -65 10 -11 2 -51 0 -90 -5z"/>
<path d="M2712 1911 c-307 -7 -302 -5 -302 -82 0 -54 16 -62 86 -44 134 35
167 14 178 -113 11 -142 -4 -438 -26 -505 -18 -53 -19 -60 -4 -82 29 -44 109
-52 164 -17 21 14 23 20 17 61 -4 25 -9 170 -11 321 -4 260 -3 277 15 307 26
41 84 61 132 44 48 -16 106 -14 113 5 17 45 -4 104 -37 104 -7 0 -21 2 -32 3
-11 2 -143 1 -293 -2z"/>
<path d="M3472 1910 c-97 -5 -115 -9 -133 -27 -21 -21 -21 -22 -4 -92 16 -64
16 -92 6 -303 -7 -128 -17 -268 -22 -311 -12 -89 -8 -99 49 -119 57 -19 405
-15 454 6 41 17 59 56 41 85 -11 18 -16 18 -193 6 -85 -6 -122 -5 -139 4 -52
28 -79 166 -46 232 23 43 55 52 161 44 107 -8 124 1 124 65 0 33 -5 42 -27 53
-17 9 -38 11 -53 6 -14 -4 -52 -7 -86 -8 -53 -1 -65 3 -89 25 -26 24 -27 28
-23 102 5 74 7 77 44 110 l39 34 118 -6 c129 -6 157 0 157 38 0 43 -26 53
-150 57 -63 3 -166 2 -228 -1z"/>
<path d="M7515 1913 c-59 -6 -68 -18 -59 -77 4 -28 6 -177 6 -331 -1 -228 -4
-288 -17 -318 -18 -44 -19 -89 -3 -105 7 -7 37 -12 68 -12 47 0 60 4 79 24 20
21 22 32 19 114 -3 85 -1 92 22 118 28 30 106 68 163 78 154 28 246 143 235
296 -4 56 -11 76 -36 110 -41 56 -90 88 -153 100 -50 10 -241 11 -324 3z m246
-80 c35 -11 66 -30 86 -53 31 -33 33 -39 33 -116 0 -74 -3 -85 -30 -122 -54
-76 -193 -110 -241 -59 -20 21 -21 28 -15 169 4 81 9 154 12 162 6 16 47 34
80 35 12 1 46 -7 75 -16z"/>
<path d="M1041 1888 c-5 -13 -4 -37 3 -58 13 -41 15 -602 3 -695 -12 -92 -16
-90 185 -90 228 0 308 24 374 111 25 33 29 47 32 119 5 101 -15 147 -83 196
-25 18 -45 38 -45 45 0 7 14 29 31 49 70 79 72 210 4 276 -60 60 -98 68 -308
68 -185 1 -188 1 -196 -21z m353 -72 c49 -20 70 -61 69 -128 -2 -96 -44 -134
-160 -144 -108 -9 -113 -3 -112 119 2 120 9 148 39 165 29 15 114 9 164 -12z
m52 -381 c41 -31 74 -92 74 -135 0 -35 -29 -97 -56 -121 -34 -29 -103 -49
-168 -49 -58 0 -67 3 -85 26 -18 23 -21 41 -21 140 0 121 8 159 37 168 10 3
56 3 102 1 70 -4 88 -8 117 -30z"/>
<path d="M1952 1894 c-28 -19 -28 -44 1 -97 21 -41 22 -51 22 -312 0 -238 -2
-273 -17 -295 -9 -14 -20 -44 -24 -67 -6 -39 -4 -42 24 -57 38 -20 150 -21
175 -2 21 16 22 71 2 106 -11 20 -14 80 -15 296 0 245 2 276 20 329 24 70 24
79 4 99 -22 22 -161 22 -192 0z"/>
<path d="M6920 1903 c-33 -13 -41 -63 -16 -99 29 -40 39 -150 34 -358 -4 -158
-9 -211 -23 -246 -9 -25 -19 -62 -22 -82 -4 -33 -2 -38 26 -52 17 -9 55 -16
90 -16 48 0 65 4 85 23 l24 22 -21 55 c-21 52 -22 71 -22 315 1 246 2 264 24
333 23 70 23 73 6 92 -15 17 -30 20 -94 19 -42 0 -83 -3 -91 -6z"/>
<path d="M4846 1883 c-45 -5 -97 -41 -126 -88 -26 -42 -26 -123 0 -197 23 -66
19 -85 -30 -137 -72 -78 -85 -107 -84 -197 0 -80 1 -84 37 -127 54 -66 114
-92 212 -92 44 1 96 7 115 14 21 8 92 14 173 16 76 2 141 5 143 8 3 3 -13 35
-35 71 -23 37 -41 79 -41 94 1 25 18 81 49 156 6 16 10 37 9 45 -5 23 -65 18
-97 -8 -61 -49 -68 -52 -102 -44 -18 5 -41 20 -51 34 -18 23 -18 28 -2 94 9
39 23 92 30 119 47 163 -31 257 -200 239z m104 -63 c22 -17 25 -26 25 -88 0
-64 -3 -74 -31 -109 -17 -21 -39 -38 -50 -38 -10 0 -30 18 -46 40 -75 109 8
268 102 195z m-75 -431 c22 -28 61 -78 88 -111 26 -32 47 -65 47 -71 -1 -60
-149 -102 -211 -59 -99 67 -113 164 -37 256 41 50 65 47 113 -15z"/>
</g>
</svg>
